<svg id="Capa_1" enable-background="new 0 0 512 512" height="512" viewBox="0 0 512 512" width="512" xmlns="http://www.w3.org/2000/svg" xmlns:xlink="http://www.w3.org/1999/xlink"><linearGradient id="SVGID_1_" gradientUnits="userSpaceOnUse" x1="256" x2="256" y1="-4.609" y2="629.973"><stop offset=".0023" stop-color="#ffc599"/><stop offset=".992" stop-color="#ffe8dc" stop-opacity="0"/></linearGradient><path d="m512 191.303c0-77.209-114.615-139.799-256-139.799s-256 62.59-256 139.799c0 12.48 2.999 24.577 8.62 36.089 10.007 20.491 12.502 43.828 7.537 66.086-2.036 9.127-3.179 18.59-3.333 28.294-1.235 77.812 61.961 142.061 139.782 142.06 58.443 0 108.503-35.865 129.385-86.785 11.468-27.964 35.565-48.919 65.155-55.077 96.38-20.057 164.854-70.992 164.854-130.667z" fill="url(#SVGID_1_)"/><path d="m419.952 462.168h-331.904c-10.52 0-19.048-8.528-19.048-19.048v-349.904c0-10.52 8.528-19.048 19.048-19.048h331.905c10.52 0 19.048 8.528 19.048 19.048v349.904c-.001 10.52-8.529 19.048-19.049 19.048z" fill="#00c" opacity=".1"/><path d="m419.952 441.168h-331.904c-10.52 0-19.048-8.528-19.048-19.048v-349.904c0-10.52 8.528-19.048 19.048-19.048h331.905c10.52 0 19.048 8.528 19.048 19.048v349.904c-.001 10.52-8.529 19.048-19.049 19.048z" fill="#ffd9d9"/><circle cx="251.507" cy="121.495" fill="#ff9d33" r="64.493"/><circle cx="187.013" cy="159.297" fill="#b3b3ff" r="28.904"/><path d="m412.805 129.008-123.557 123.557c-1.952 1.952-5.117 1.952-7.069 0l-53.243-53.243c-1.952-1.952-1.952-5.117 0-7.069l123.556-123.557c1.952-1.952 5.117-1.952 7.069 0l53.243 53.243c1.953 1.952 1.953 5.117.001 7.069z" fill="#ff4d4d"/><path d="m296.243 216.881c-1.279 0-2.56-.488-3.535-1.464l-26.624-26.624c-1.953-1.953-1.953-5.119 0-7.071 1.951-1.952 5.119-1.952 7.07 0l26.624 26.624c1.953 1.953 1.953 5.119 0 7.071-.975.976-2.256 1.464-3.535 1.464z" fill="#ffd9d9"/><g fill="#fff"><path d="m280.803 201.441c-1.279 0-2.56-.488-3.535-1.464l-11.184-11.184c-.938-.938-1.465-2.209-1.465-3.536s.526-2.598 1.465-3.536l8.406-8.406c2.438-2.438 5.679-3.781 9.127-3.781s6.689 1.343 9.128 3.781c5.032 5.032 5.032 13.221 0 18.254h-.001l-8.406 8.406c-.976.978-2.256 1.466-3.535 1.466zm-4.113-16.184 4.112 4.113 4.871-4.871c1.133-1.134 1.133-2.979 0-4.112-1.1-1.099-3.015-1.098-4.112 0zm12.519 2.778h.01z"/><path d="m296.243 216.881c-1.326 0-2.598-.527-3.535-1.464l-15.457-15.457c-1.953-1.953-1.953-5.118-.001-7.071l9.563-9.563c3.01-3.009 7.01-4.666 11.265-4.666 4.256 0 8.256 1.657 11.265 4.666 3.008 3.008 4.665 7.009 4.665 11.264s-1.657 8.255-4.666 11.264l-9.563 9.563c-.938.937-2.21 1.464-3.536 1.464zm-8.386-20.457 8.386 8.385 6.027-6.027c1.12-1.12 1.736-2.609 1.736-4.193 0-1.583-.616-3.073-1.736-4.193s-2.609-1.737-4.193-1.737-3.073.617-4.193 1.737z"/><path d="m325.262 184.647c-3.409 0-6.614-1.328-9.025-3.739l-21.134-21.134c-1.953-1.953-1.953-5.119 0-7.071 1.951-1.952 5.119-1.952 7.07 0l21.135 21.134c1.045 1.044 2.864 1.043 3.907 0l6.313-6.313c.522-.522.811-1.216.811-1.954s-.287-1.432-.81-1.953l-21.134-21.135c-1.953-1.953-1.953-5.119 0-7.071 1.951-1.952 5.119-1.952 7.07 0l21.134 21.134c2.411 2.41 3.739 5.615 3.739 9.025 0 3.409-1.328 6.614-3.739 9.025l-6.312 6.313c-2.411 2.411-5.616 3.739-9.025 3.739z"/><path d="m338.361 138.611c-3.409 0-6.614-1.328-9.025-3.739l-4.665-4.666c-1.953-1.953-1.953-5.119 0-7.071 1.951-1.952 5.119-1.952 7.07 0l4.666 4.666c1.044 1.043 2.862 1.044 3.908 0l6.313-6.313c.521-.522.81-1.216.81-1.954s-.288-1.432-.81-1.954l-4.666-4.666c-1.953-1.953-1.953-5.119 0-7.071 1.951-1.952 5.119-1.952 7.07 0l4.666 4.666c2.411 2.411 3.739 5.616 3.739 9.025s-1.328 6.614-3.739 9.025l-6.313 6.313c-2.41 2.411-5.615 3.739-9.024 3.739z"/><path d="m363.475 149.649c-1.279 0-2.56-.488-3.535-1.464l-16.468-16.468c-1.953-1.953-1.953-5.119 0-7.071 1.951-1.952 5.119-1.952 7.07 0l16.468 16.468c1.953 1.953 1.953 5.119 0 7.071-.976.976-2.256 1.464-3.535 1.464z"/><path d="m69 202.668v219.452c0 10.52 8.528 19.048 19.048 19.048h331.905c10.52 0 19.048-8.528 19.048-19.048v-219.452z"/></g><path d="m439 109.358v-37.142c0-10.52-8.528-19.048-19.048-19.048h-331.904c-10.52 0-19.048 8.528-19.048 19.048v37.143h370z" fill="#b3b3ff"/><path d="m397.5 86.263h-16.52c-2.762 0-5-2.239-5-5s2.238-5 5-5h16.52c2.762 0 5 2.239 5 5s-2.238 5-5 5z" fill="#ff4d4d"/><path d="m359 86.263h-16.52c-2.762 0-5-2.239-5-5s2.238-5 5-5h16.52c2.762 0 5 2.239 5 5s-2.238 5-5 5z" fill="#ff9d33"/><path d="m303.5 86.263h-136.52c-2.762 0-5-2.239-5-5s2.238-5 5-5h136.52c2.762 0 5 2.239 5 5s-2.238 5-5 5z" fill="#ebebff"/><path d="m37.125 93.599c-1.279 0-2.56-.488-3.535-1.464-1.953-1.953-1.953-5.119 0-7.071l10-10c1.951-1.952 5.119-1.952 7.07 0 1.953 1.953 1.953 5.119 0 7.071l-10 10c-.975.976-2.256 1.464-3.535 1.464z" fill="#ff9d33"/><path d="m41.125 198.394c-1.279 0-2.56-.488-3.535-1.464l-6.465-6.464-6.465 6.464c-1.951 1.952-5.119 1.952-7.07 0-1.953-1.953-1.953-5.119 0-7.071l10-10c1.951-1.952 5.119-1.952 7.07 0l10 10c1.953 1.953 1.953 5.119 0 7.071-.975.975-2.256 1.464-3.535 1.464z" fill="#ff6c6c"/><path d="m486.875 368.168c-1.279 0-2.56-.488-3.535-1.464l-6.465-6.464-6.465 6.464c-1.951 1.952-5.119 1.952-7.07 0-1.953-1.953-1.953-5.119 0-7.071l10-10c1.951-1.952 5.119-1.952 7.07 0l10 10c1.953 1.953 1.953 5.119 0 7.071-.975.976-2.256 1.464-3.535 1.464z" fill="#ff9d33"/><path d="m37.125 243.475c-1.279 0-2.56-.488-3.535-1.464-1.953-1.953-1.953-5.119 0-7.071l10-10c1.951-1.952 5.119-1.952 7.07 0 1.953 1.953 1.953 5.119 0 7.071l-10 10c-.975.975-2.256 1.464-3.535 1.464z" fill="#6c6cff"/><path d="m174.609 329.825h-48c-2.762 0-5-2.239-5-5s2.238-5 5-5h48c2.762 0 5 2.239 5 5s-2.238 5-5 5z" fill="#d9d9ff"/><path d="m174.609 309.598h-48c-2.762 0-5-2.239-5-5s2.238-5 5-5h48c2.762 0 5 2.239 5 5s-2.238 5-5 5z" fill="#d9d9ff"/><path d="m163.784 282.08h-26.351c-4.813 0-8.729-3.916-8.729-8.729v-26.351c0-4.813 3.916-8.729 8.729-8.729h26.351c4.813 0 8.729 3.916 8.729 8.729v26.351c0 4.813-3.916 8.729-8.729 8.729zm-25.079-10h23.809v-23.809h-23.809z" fill="#ff9d33"/><path d="m278 329.825h-48c-2.762 0-5-2.239-5-5s2.238-5 5-5h48c2.762 0 5 2.239 5 5s-2.238 5-5 5z" fill="#d9d9ff"/><path d="m278 309.598h-48c-2.762 0-5-2.239-5-5s2.238-5 5-5h48c2.762 0 5 2.239 5 5s-2.238 5-5 5z" fill="#d9d9ff"/><path d="m267.175 282.08h-26.351c-4.813 0-8.729-3.916-8.729-8.729v-26.351c0-4.813 3.916-8.729 8.729-8.729h26.351c4.813 0 8.729 3.916 8.729 8.729v26.351c0 4.813-3.916 8.729-8.729 8.729zm-25.079-10h23.809v-23.809h-23.809z" fill="#ff4d4d"/><path d="m381.391 329.825h-48c-2.762 0-5-2.239-5-5s2.238-5 5-5h48c2.762 0 5 2.239 5 5s-2.238 5-5 5z" fill="#d9d9ff"/><path d="m381.391 309.598h-48c-2.762 0-5-2.239-5-5s2.238-5 5-5h48c2.762 0 5 2.239 5 5s-2.238 5-5 5z" fill="#d9d9ff"/><path d="m439 138.359c-2.762 0-5 2.239-5 5v278.761c0 7.746-6.302 14.048-14.048 14.048h-331.904c-7.746 0-14.048-6.302-14.048-14.048v-278.761c0-2.761-2.238-5-5-5s-5 2.239-5 5v278.761c0 13.26 10.788 24.048 24.048 24.048h331.904c13.26 0 24.048-10.788 24.048-24.048v-278.761c0-2.761-2.238-5-5-5z" fill="#00c"/><path d="m419.952 48.168h-331.904c-13.26 0-24.048 10.788-24.048 24.048v37.143c0 2.761 2.238 5 5 5h370c2.762 0 5-2.239 5-5v-37.143c0-13.26-10.788-24.048-24.048-24.048zm-331.904 10h331.904c7.746 0 14.048 6.302 14.048 14.048v32.143h-360v-32.143c0-7.746 6.302-14.048 14.048-14.048z" fill="#00c"/><path d="m370.566 282.08c4.813 0 8.729-3.916 8.729-8.729v-26.351c0-4.813-3.916-8.729-8.729-8.729h-26.351c-4.813 0-8.729 3.916-8.729 8.729v26.351c0 4.813 3.916 8.729 8.729 8.729zm-25.079-33.808h23.809v23.809h-23.809z" fill="#00c"/><path d="m174.609 426.459h-48c-2.762 0-5-2.239-5-5s2.238-5 5-5h48c2.762 0 5 2.239 5 5s-2.238 5-5 5z" fill="#d9d9ff"/><path d="m163.784 398.94h-26.351c-4.813 0-8.729-3.916-8.729-8.729v-26.351c0-4.813 3.916-8.729 8.729-8.729h26.351c4.813 0 8.729 3.916 8.729 8.729v26.351c0 4.813-3.916 8.729-8.729 8.729zm-25.079-10h23.809v-23.809h-23.809z" fill="#ff4d4d"/><path d="m278 426.459h-48c-2.762 0-5-2.239-5-5s2.238-5 5-5h48c2.762 0 5 2.239 5 5s-2.238 5-5 5z" fill="#d9d9ff"/><path d="m267.175 398.94h-26.351c-4.813 0-8.729-3.916-8.729-8.729v-26.351c0-4.813 3.916-8.729 8.729-8.729h26.351c4.813 0 8.729 3.916 8.729 8.729v26.351c0 4.813-3.916 8.729-8.729 8.729zm-25.079-10h23.809v-23.809h-23.809z" fill="#b3b3ff"/><path d="m381.391 426.459h-48c-2.762 0-5-2.239-5-5s2.238-5 5-5h48c2.762 0 5 2.239 5 5s-2.238 5-5 5z" fill="#d9d9ff"/><path d="m370.566 398.94h-26.351c-4.813 0-8.729-3.916-8.729-8.729v-26.351c0-4.813 3.916-8.729 8.729-8.729h26.351c4.813 0 8.729 3.916 8.729 8.729v26.351c0 4.813-3.916 8.729-8.729 8.729zm-25.079-10h23.809v-23.809h-23.809z" fill="#ff9d33"/><path d="m490.875 93.783c-1.279 0-2.56-.488-3.535-1.464l-6.465-6.464-6.465 6.464c-1.951 1.952-5.119 1.952-7.07 0-1.953-1.953-1.953-5.119 0-7.071l10-10c1.951-1.952 5.119-1.952 7.07 0l10 10c1.953 1.953 1.953 5.119 0 7.071-.975.976-2.256 1.464-3.535 1.464z" fill="#6c6cff"/><circle cx="111.795" cy="188.394" fill="#ff4d4d" r="5.59"/><circle cx="128.705" cy="188.394" fill="#ff9494" r="5.59"/><circle cx="145.615" cy="188.394" fill="#ff9494" r="5.59"/></svg>